<svg id="logo" xmlns="http://www.w3.org/2000/svg" width="80" height="13.398" viewBox="0 0 80 13.398">
  <g id="TEKKUN" style="isolation: isolate">
    <g id="グループ_19" data-name="グループ 19" style="isolation: isolate">
      <path id="パス_14" data-name="パス 14" d="M3.728,2.986H0V.439H10.334V2.986H6.607V13.5H3.728Z" transform="translate(0 -0.439)" fill="#5dab92"/>
      <path id="パス_15" data-name="パス 15" d="M24.049.439h8.876V3.1h-6V5.532h5.666V8.19H26.928v2.657h6.33V13.5H24.049Z" transform="translate(-11.223 -0.439)" fill="#5dab92"/>
      <path id="パス_16" data-name="パス 16" d="M47.577.439h2.88V5.865L55.531.439H59.3L53.483,6.511,59.794,13.5H55.771L50.456,7.3v6.2h-2.88Z" transform="translate(-22.202 -0.439)" fill="#5dab92"/>
      <path id="パス_17" data-name="パス 17" d="M74.29.439h2.88V5.865L82.242.439h3.765L80.194,6.511,86.508,13.5H82.484L77.169,7.3v6.2h-2.88Z" transform="translate(-34.668 -0.439)" fill="#5dab92"/>
      <path id="パス_18" data-name="パス 18" d="M111.81,8.467a6.29,6.29,0,0,1-.35,2.141,4.719,4.719,0,0,1-1.043,1.7,4.794,4.794,0,0,1-1.728,1.126,7.237,7.237,0,0,1-4.779,0,4.792,4.792,0,0,1-1.725-1.126,4.719,4.719,0,0,1-1.043-1.7,6.29,6.29,0,0,1-.35-2.141V.439h2.88V8.356a3.183,3.183,0,0,0,.194,1.126,2.7,2.7,0,0,0,.545.9,2.473,2.473,0,0,0,.84.59,2.635,2.635,0,0,0,1.061.213,2.58,2.58,0,0,0,1.052-.213,2.5,2.5,0,0,0,.83-.59,2.7,2.7,0,0,0,.545-.9,3.184,3.184,0,0,0,.194-1.126V.439h2.88Z" transform="translate(-47.036 -0.439)" fill="#5dab92"/>
      <path id="パス_19" data-name="パス 19" d="M126.781.439h3.913l5.555,9.08h.036V.439h2.88V13.506H135.4l-5.7-9.3h-.037v9.3h-2.88Z" transform="translate(-59.164 -0.439)" fill="#5dab92"/>
    </g>
  </g>
</svg>
